0
SECTION
2
HEADER
9
$INSUNITS
70
4
9
$ACADVER
1
AC1014
9
$HANDSEED
5
FFFF
0
ENDSEC
0
SECTION
2
TABLES
0
TABLE
2
VPORT
5
8
100
AcDbSymbolTable
0
ENDTAB
0
TABLE
2
LTYPE
5
5
100
AcDbSymbolTable
0
LTYPE
5
14
100
AcDbSymbolTableRecord
100
AcDbLinetypeTableRecord
2
BYBLOCK
70
0
0
LTYPE
5
15
100
AcDbSymbolTableRecord
100
AcDbLinetypeTableRecord
2
BYLAYER
70
0
0
ENDTAB
0
TABLE
2
LAYER
5
2
100
AcDbSymbolTable
70
2
0
LAYER
5
50
100
AcDbSymbolTableRecord
100
AcDbLayerTableRecord
2
0
70
0
6
CONTINUOUS
0
ENDTAB
0
TABLE
2
STYLE
5
3
100
AcDbSymbolTable
70
1
0
STYLE
5
11
100
AcDbSymbolTableRecord
100
AcDbTextStyleTableRecord
2
STANDARD
70
0
0
ENDTAB
0
TABLE
2
VIEW
5
6
100
AcDbSymbolTable
70
0
0
ENDTAB
0
TABLE
2
UCS
5
7
100
AcDbSymbolTable
70
0
0
ENDTAB
0
TABLE
2
APPID
5
9
100
AcDbSymbolTable
70
2
0
APPID
5
12
100
AcDbSymbolTableRecord
100
AcDbRegAppTableRecord
2
ACAD
70
0
0
ENDTAB
0
TABLE
2
DIMSTYLE
5
A
100
AcDbSymbolTable
70
1
0
ENDTAB
0
TABLE
2
BLOCK_RECORD
5
1
100
AcDbSymbolTable
70
1
0
BLOCK_RECORD
5
1F
100
AcDbSymbolTableRecord
100
AcDbBlockTableRecord
2
*MODEL_SPACE
0
BLOCK_RECORD
5
1B
100
AcDbSymbolTableRecord
100
AcDbBlockTableRecord
2
*PAPER_SPACE
0
ENDTAB
0
ENDSEC
0
SECTION
2
BLOCKS
0
BLOCK
5
20
100
AcDbEntity
100
AcDbBlockBegin
2
*MODEL_SPACE
0
ENDBLK
5
21
100
AcDbEntity
100
AcDbBlockEnd
0
BLOCK
5
1C
100
AcDbEntity
100
AcDbBlockBegin
2
*PAPER_SPACE
0
ENDBLK
5
1D
100
AcDbEntity
100
AcDbBlockEnd
0
ENDSEC
0
SECTION
2
ENTITIES
0
ARC
5
100
100
AcDbEntity
8
0
100
AcDbCircle
10
398.8328355629443
20
372.49999999985539
30
-1.4210854715202009e-13
40
17.5
210
4.5217413461520231e-17
220
-1.2186447078868569e-17
230
1
100
AcDbArc
50
270.00000000001694
51
351.78678929872234
0
LINE
5
101
100
AcDbEntity
8
0
100
AcDbLine
10
416.15334363865315
20
369.9999999999946
30
-1.429222018447385e-13
11
346.20171555044834
21
369.9999999999938
31
-1.4210854715202483e-13
0
ARC
5
102
100
AcDbEntity
8
0
100
AcDbCircle
10
346.20171555044817
20
377.99999999999392
30
-1.4210854715202004e-13
40
8.0000000000000426
210
-6.7053176943785656e-29
220
1.9821128820769003e-31
230
1
100
AcDbArc
50
180
51
270.00000000000119
0
LINE
5
103
100
AcDbEntity
8
0
100
AcDbLine
10
338.20171555044817
20
377.99999999999363
30
-1.4210854715202057e-13
11
338.20171555044794
21
384.99999999999375
31
0
0
LINE
5
104
100
AcDbEntity
8
0
100
AcDbLine
10
338.20171555044794
20
384.99999999999375
30
0
11
318.20171555053201
21
384.99999999998948
31
1.4210854715199381e-13
0
LINE
5
105
100
AcDbEntity
8
0
100
AcDbLine
10
318.20171555053201
20
384.99999999998948
30
1.4210854715199381e-13
11
318.20171555049052
21
590.59429334026493
31
-5.0487097934144756e-28
0
ARC
5
106
100
AcDbEntity
8
0
100
AcDbCircle
10
333.20171555049052
20
590.594293340268
30
0
40
15
210
-6.694817005518575e-29
220
-7.0602057794171316e-43
230
1
100
AcDbArc
50
90.000000000000654
51
180
0
LINE
5
107
100
AcDbEntity
8
0
100
AcDbLine
10
333.20171555049035
20
605.594293340268
30
1.0764014880968776e-42
11
338.20171555044573
21
605.594293340268
31
-1.4238610290817587e-13
0
LINE
5
108
100
AcDbEntity
8
0
100
AcDbLine
10
338.20171555044573
20
605.594293340268
30
-1.4238610290817587e-13
11
338.20171555044539
21
635.594293340268
31
0
0
LINE
5
109
100
AcDbEntity
8
0
100
AcDbLine
10
338.20171555044539
20
635.594293340268
30
0
11
333.2017155504833
21
635.594293340268
31
-4.3727743251849177e-28
0
ARC
5
110
100
AcDbEntity
8
0
100
AcDbCircle
10
333.20171555048324
20
650.594293340268
30
0
40
15
210
-1.6407013665954184e-27
220
-3.1554436213214604e-30
230
1
100
AcDbArc
50
180
51
270.00000000000023
0
LINE
5
111
100
AcDbEntity
8
0
100
AcDbLine
10
318.20171555048324
20
650.59429334026402
30
-2.4610520498931286e-26
11
318.20171555044362
21
799.99999999999955
31
3.7865323450608567e-28
0
LINE
5
112
100
AcDbEntity
8
0
100
AcDbLine
10
318.20171555044362
20
799.99999999999955
30
3.7865323450608567e-28
11
308.60514665132973
21
799.99999999999341
31
5.5511151227497238e-16
0
SPLINE
5
113
100
AcDbEntity
8
0
100
AcDbSpline
70
4
71
5
72
16
73
10
74
0
42
0.000000001
43
0.0000000001
44
0.0000000001
40
0
40
0
40
0
40
0
40
0
40
0
40
0.20000000000000001
40
0.40000000000000002
40
0.60000000000000009
40
0.80000000000000004
40
0.99999363347825621
40
0.99999363347825621
40
0.99999363347825621
40
0.99999363347825621
40
0.99999363347825621
40
0.99999363347825621
41
1
41
1
41
1
41
1
41
1
41
1
41
1
41
1
41
1
41
1
10
308.60514665132973
20
799.99999999999341
30
0
10
307.91068835701407
20
799.99999999998988
30
-1.4210854715202004e-13
10
306.56199398574557
20
799.72956318469096
30
0
10
304.65953450742768
20
798.51312355484708
30
0
10
302.3515697088871
20
795.3169337800116
30
-1.4210854715202004e-13
10
299.8671515398388
20
788.32691724861638
30
-1.4210854715202004e-13
10
298.29215659679272
20
779.42933942886907
30
0
10
297.42856654098011
20
770.13201302055086
30
-2.8421709430404007e-13
10
297.01411022728365
20
762.59458821475403
30
-1.4210854715202004e-13
10
296.84723612897727
20
758.4908404463614
30
-1.4210854715202004e-13
0
LINE
5
114
100
AcDbEntity
8
0
100
AcDbLine
10
296.84723612897733
20
758.49084044636152
30
-1.4210854715202009e-13
11
296.84720956835127
21
758.4901872571877
31
1.3952716962737977e-21
0
SPLINE
5
115
100
AcDbEntity
8
0
100
AcDbSpline
70
4
71
5
72
16
73
10
74
0
42
0.000000001
43
0.0000000001
44
0.0000000001
40
0.13931710462778041
40
0.13931710462778041
40
0.13931710462778041
40
0.13931710462778041
40
0.13931710462778041
40
0.13931710462778041
40
0.20000000000000001
40
0.40000000000000002
40
0.60000000000000009
40
0.80000000000000004
40
1
40
1
40
1
40
1
40
1
40
1
41
1
41
1
41
1
41
1
41
1
41
1
41
1
41
1
41
1
41
1
10
296.84720956835127
20
758.49018725718838
30
0
10
296.61854220301029
20
752.79656489940703
30
-1.4210854715202004e-13
10
295.54253240393825
20
726.49753237626771
30
0
10
292.97126143067374
20
666.47890628124196
30
-1.4210854715202004e-13
10
288.11635043605969
20
551.43017854977245
30
0
10
282.20620537064553
20
370.99097800314786
30
0
10
281.94113796463256
20
203.30342689370468
30
0
10
287.4204476043883
20
93.383267317797802
30
-1.4210854715202004e-13
10
294.10259250381478
20
29.551234158546585
30
-1.4210854715202004e-13
10
298.20171555061421
20
-1.0703641274502592e-11
30
0
0
LINE
5
116
100
AcDbEntity
8
0
100
AcDbLine
10
298.20171555061427
20
-1.0724673928573199e-11
30
2.8714960955559149e-29
11
313.20171555061421
21
-7.5061820199609682e-12
31
1.967758873662637e-26
0
LINE
5
117
100
AcDbEntity
8
0
100
AcDbLine
10
313.20171555061421
20
-7.5061820199609682e-12
30
1.967758873662637e-26
11
313.20171555055293
21
287.49999999983578
31
-1.2621774483536189e-27
0
ARC
5
118
100
AcDbEntity
8
0
100
AcDbCircle
10
380.70171555055305
20
287.49999999985016
30
-1.4210854715202004e-13
40
67.5
210
5.5511151229430992e-17
220
3.8449664861341093e-29
230
1
100
AcDbArc
50
90.000000000017025
51
180
0
LINE
5
119
100
AcDbEntity
8
0
100
AcDbLine
10
380.70171555053298
20
354.99999999985016
30
-1.4210854715202153e-13
11
398.83283556294947
21
354.99999999985539
31
-1.4232180997590055e-13
0
ENDSEC
0
SECTION
2
OBJECTS
0
DICTIONARY
5
C
100
AcDbDictionary
3
ACAD_GROUP
350
D
3
ACAD_MLINESTYLE
350
17
0
DICTIONARY
5
D
100
AcDbDictionary
0
DICTIONARY
5
1A
330
C
100
AcDbDictionary
0
DICTIONARY
5
17
100
AcDbDictionary
0
ENDSEC
0
EOF
